<svg height="56" viewBox="0 0 32 56" width="32" xmlns="http://www.w3.org/2000/svg"><path d="m0 0h32v56h-32z" fill="none"/><path d="m30.5859 18.3548c-.2233.1736-4.1427 2.3815-4.1427 7.2932 0 5.6808 4.9862 7.6901 5.135 7.7397-.0248.124-.7938 2.7536-2.6295 5.4327-1.6373 2.3567-3.3489 4.7133-5.9536 4.7133s-3.2745-1.5132-6.2761-1.5132c-2.9272 0-3.9691 1.5628-6.3506 1.5628s-4.0435-2.183-5.9536-4.8621c-2.2078-3.1505-3.9939-8.0374-3.9939-12.6763 0-7.4421 4.8373-11.3864 9.6003-11.3864 2.5303 0 4.6389 1.6621 6.2265 1.6621 1.5132 0 3.8699-1.7613 6.7475-1.7613 1.0915 0 5.011.0992 7.5909 3.7955zm-20.5081-5.3946c-.4438 0-.863.0246-1.3068.074v-3.8218c0-5.1039 2.9341-8.4078 7.5202-8.4078s7.5695 3.304 7.5448 8.4078v3.6738c-.3698-.0246-.641-.0246-.8136-.0246-.7644 0-1.504.074-2.1451.2219v-3.871c0-1.6766-.4685-5.449-4.5861-5.449s-4.5614 3.7724-4.5614 5.449v3.8957c-.5178-.0986-1.0849-.1479-1.652-.1479z"/></svg>