<svg height="56" viewBox="0 0 40 56" width="40" xmlns="http://www.w3.org/2000/svg"><path d="m0 0h40v56h-40z" fill="none"/><path d="m20 8.5c-10.7695 0-19.5 8.7305-19.5 19.5s8.7305 19.5 19.5 19.5 19.5-8.7305 19.5-19.5-8.7304-19.5-19.5-19.5zm0 36.8c-9.5392 0-17.3-7.7607-17.3-17.3s7.7608-17.3 17.3-17.3 17.3 7.7607 17.3 17.3-7.7607 17.3-17.3 17.3zm9.757-23.2929c0 .5031-.3177.9143-.7944 1.0467-.6089.1852-4.9115.6619-5.4543.7803-.5295.1324-.8208.5435-.834 1.2054 0 .9533 0 4.0776.2251 5.5198.2251 1.4174 1.8799 8.2082 1.9461 8.4869.1986.7414-.2515 1.3629-.9797 1.3629-.5163 0-.9002-.2649-1.0591-.9656-.3442-1.391-1.5489-6.0899-1.8799-7.2285-.2516-.7942-.4898-1.1121-.9267-1.1121s-.6884.3179-.9267 1.1121c-.3442 1.1387-1.5357 5.8375-1.8799 7.2285-.1721.7007-.556.9656-1.0591.9656-.7282 0-1.1915-.6215-.9797-1.3629.0662-.2787 1.7211-7.0695 1.9461-8.4869.2251-1.4422.2251-4.5664.2251-5.5198-.0133-.662-.3177-1.073-.8473-1.2054-.5295-.1185-4.8322-.5951-5.4411-.7803-.4898-.1324-.7943-.5436-.7943-1.0467 0-.7009.4899-1.098.9797-1.098.1721 0 .331.0265.5031.053 1.7873.3301 5.6.7538 8.2743.7538s6.487-.4237 8.2743-.7538c.1721-.0265.3309-.053.5031-.053.4766 0 .9797.3971.9797 1.098zm-12.1945-3.9787c0-1.3462 1.0913-2.4375 2.4375-2.4375s2.4375 1.0913 2.4375 2.4375-1.0913 2.4375-2.4375 2.4375-2.4375-1.0913-2.4375-2.4375z" fill="#2997ff"/></svg>